<svg xmlns="http://www.w3.org/2000/svg" width="50.177" height="58.011" viewBox="0 0 50.177 58.011">
  <g id="Academy_white" transform="translate(-3.909 0.021)">
    <path id="패스_1" data-name="패스 1" d="M32.36,34.74a92.491,92.491,0,0,1-1.69,19.44,4.554,4.554,0,0,1-.31,1.18c-.44.87-.96,1.7-1.49,2.63a18.379,18.379,0,0,1-2.57-7.06c-1.1-5.57-.82-11.19-.72-16.81a36.478,36.478,0,0,0-2.26-14.48,3.04,3.04,0,0,1-.02-1.41,4.916,4.916,0,0,1,.38-1.03,2.178,2.178,0,0,0,.18-1.2,10.948,10.948,0,0,0-1.66,1.43c-1.31,1.68-2.25,1.99-4.25,1.25-.08-.03-.16-.05-.23-.08-2.53-1.02-2.68-1.78-.81-3.74a9.911,9.911,0,0,1,6.22-3.39,2.659,2.659,0,0,0,2.3-2.38,2.38,2.38,0,0,0-1.46-2.68c-2.31-1.25-2.36-1.58-.58-3.59,3.65-4.12,9.02-3.71,11.89.91.79,1.27.58,1.93-.76,2.49-1.72.71-2.17,1.32-2.07,2.76s.78,2.21,2.54,2.51a10,10,0,0,1,5.9,3.27c.75.84,1.37,1.68.78,2.84a3.422,3.422,0,0,1-3.46,1.3,10.556,10.556,0,0,1-2.18-1.3c-.53-.37-.99-.82-1.49-1.24,0,1.22.3,2.4-.05,3.34A40.03,40.03,0,0,0,32.36,34.74ZM19.33,21.41q-6.285-2.775-12.59-5.5a22.349,22.349,0,0,0-2.53-.77,4.112,4.112,0,0,0,2.01,5.32c2.55,1.47,5.16,2.84,7.74,4.27.39.21.74.49,1.11.74-.06.11-.11.23-.17.34-.4-.13-.81-.24-1.2-.38-2.15-.79-4.29-1.59-6.45-2.37a1.092,1.092,0,0,0-.87,0,.905.905,0,0,0-.24.83c.86,1.74,1.54,3.54,3.46,4.6,6.22,3.43,10.47,8.41,11.91,15.56a15.171,15.171,0,0,0,1.27,2.98l.46-.03a6.057,6.057,0,0,0,.33-1.63c-.48-6.75-1.04-13.49-1.51-20.23A4.134,4.134,0,0,0,19.33,21.41Zm33.16-5.86c-4.86,2.04-9.72,4.12-14.58,6.17a3.154,3.154,0,0,0-2.07,2.91c-.5,6.99-1.06,13.98-1.57,20.97a5,5,0,0,0,.19,1.19c.15.03.3.05.45.08.65-1.57,1.32-3.12,1.95-4.7.59-1.48,1.02-3.04,1.73-4.45a20.385,20.385,0,0,1,9.49-8.95c2.5-1.27,3.12-3.55,3.55-6.14-2.68,1.03-5.2,1.99-7.71,2.95-.08-.12-.17-.25-.25-.37,2.56-1.51,5.1-3.08,7.69-4.53a4.9,4.9,0,0,0,2.66-3.87C54.25,15.25,53.91,14.95,52.49,15.55Z" fill="#fff"/>
  </g>
</svg>
