<svg xmlns="http://www.w3.org/2000/svg" width="45.02" height="57.998" viewBox="0 0 45.02 57.998">
  <g id="Arcanist_white" transform="translate(-6.48 0)">
    <path id="패스_2" data-name="패스 2" d="M28.7,18.25A9.126,9.126,0,0,0,28.97,0a9.039,9.039,0,0,0-8.99,9.07A8.962,8.962,0,0,0,28.7,18.25ZM23.82,6.53a2.355,2.355,0,0,1,2.97-1.47,2.392,2.392,0,0,1,.92,3.21,2.355,2.355,0,0,1-2.97,1.47A2.386,2.386,0,0,1,23.82,6.53ZM22.4,39.27c1.08,2.83.27,5.54-.36,8.36-.21-.08-.45-.09-.5-.2-1.69-3.4-4.78-4.09-8.14-4.33-1.38-.1-2.74-.32-4.11-.49-.04-.12-.09-.25-.13-.37,1.77-1.51,3.53-3.02,5.39-4.6-2.86-1.89-5.99-3.28-8.07-6.36,3.29-.16,6.36-.31,9.61-.47-.21-.44-.33-.74-.5-1.02q-2.625-4.11-5.25-8.21A5.34,5.34,0,0,1,9.3,17.54c3.96,1.66,7.89,3.25,10.72,6.68a8.7,8.7,0,0,1,2.14,5.42c.07,2.73.08,5.46.12,8.19A4.557,4.557,0,0,0,22.4,39.27Zm21.01-1.55c1.89,1.58,3.72,3.11,5.9,4.93a48.06,48.06,0,0,1-5.93.7c-2.76-.02-4.79.88-6.13,3.41a4.219,4.219,0,0,1-3.2,2.44c-.66-2.1.2-3.96.54-5.89.42-2.32.76-4.66.96-7.01.18-2.14-.03-4.32.21-6.46.51-4.58,3.2-7.63,7.16-9.67,1.52-.78,3.06-1.51,4.61-2.21a3.883,3.883,0,0,1,1.09-.17c.02.36.16.78.03,1.07-.7,1.55-1.39,3.12-2.23,4.6-1.25,2.21-2.61,4.36-3.91,6.54a4.04,4.04,0,0,0-.24.83c3.09.18,6.07.35,9.23.54C49.39,34.45,46.34,35.88,43.41,37.72ZM33.04,35.58a20.334,20.334,0,0,1-1.57,8.37,17.843,17.843,0,0,0-1.2,10.33,8.656,8.656,0,0,1,0,2.49c-.04.42-.25,1.1-.51,1.16a4.312,4.312,0,0,1-1.85-.09,1.07,1.07,0,0,1-.6-.66,73.382,73.382,0,0,1-2.13-7.44,7.561,7.561,0,0,1,.14-1.44c1.24-4.31.78-8.63.09-12.96-.37-2.3-.6-4.62-.94-6.93a9.774,9.774,0,0,0-2.25-4.69,12.14,12.14,0,0,1-1.84-3.3,2.164,2.164,0,0,1,.37-1.88,1.973,1.973,0,0,1,1.78-.02,13.453,13.453,0,0,0,12.49.16c.53-.25,1.69-.25,1.86.05a2.669,2.669,0,0,1,.19,2.17,21.515,21.515,0,0,1-2.47,3.87,7.8,7.8,0,0,0-1.72,5.01C32.93,31.71,32.99,33.64,33.04,35.58Z" fill="#fff"/>
  </g>
</svg>
