<svg xmlns="http://www.w3.org/2000/svg" width="57.994" height="55" viewBox="0 0 57.994 55">
  <g id="Bodyguard_white" transform="translate(-0.006 -1.5)">
    <path id="패스_3" data-name="패스 3" d="M20.63,4.52c4.69,6.45,11.53,8.86,19.38,10C33.82,30.3,27.34,45.7,12.88,56.5c-1.55-2.03-3.12-3.84-4.41-5.82C1.48,39.98-.99,28.23.36,15.63a1.778,1.778,0,0,1,.97-1.28,46.229,46.229,0,0,0,18.88-9.6A2.029,2.029,0,0,1,20.63,4.52ZM28.2,21.46c-3.77-.58-6.89-1.76-8.85-4.31-2.97,1.39-5.75,2.8-8.62,3.98-.89.36-1.32.72-1.28,1.6a59.122,59.122,0,0,0,.33,6.53,21.974,21.974,0,0,0,5.73,11.89C22.22,36.13,25.3,28.98,28.2,21.46ZM38.61,1.5c-2.89,1.99-5.76,3.97-8.74,6.03,4.32,2.45,9.08,3.51,13.89,4.23a1.391,1.391,0,0,1,.04.45,7.157,7.157,0,0,1-.23.75c-4.32,11.72-9.42,23.05-16.63,33.35a1.647,1.647,0,0,0-.17,1.46c1.31,1.87,2.74,3.67,4.28,5.69C45.47,42.72,51.83,27.22,58,11.32,50.19,10.23,43.32,7.88,38.61,1.5Z" fill="#fff"/>
  </g>
</svg>
