<svg xmlns="http://www.w3.org/2000/svg" width="58" height="58" viewBox="0 0 58 58">
  <path id="Clockwork_white" d="M58,32.4V25.29l-5.9-1.48a23.2,23.2,0,0,0-3.21-7.56l3.15-5.47L46.98,5.75,41.45,9.04a23.453,23.453,0,0,0-7.2-2.92L32.58,0H25.43L23.88,6.12a23.575,23.575,0,0,0-7.37,3.04L10.84,5.93,5.78,10.96l3.33,5.55A23.434,23.434,0,0,0,6.1,23.63L0,25.29V32.4l5.97,1.5a23.31,23.31,0,0,0,3.11,7.6L5.97,46.91l5.06,5.03,5.3-3.15a23.636,23.636,0,0,0,7.43,3.12L25.42,58h7.15l1.53-6.02a23.539,23.539,0,0,0,7.79-3.23l5.27,3,5.06-5.03-3.14-5.23a23.156,23.156,0,0,0,3.09-7.52ZM13.29,29.03A15.79,15.79,0,1,1,29.08,44.74,15.767,15.767,0,0,1,13.29,29.03Zm21.14,8.99-8.78-8.56V17.31h5.6v9.81l7.11,6.93Z" fill="#fff"/>
</svg>
