<svg xmlns="http://www.w3.org/2000/svg" width="58" height="42.1" viewBox="0 0 58 42.1">
  <g id="Cuddly_white" transform="translate(0 -8)">
    <g id="그룹_1" data-name="그룹 1">
      <path id="패스_4" data-name="패스 4" d="M49.9,37.3c.3-.3,2.4-1.6,2.7-1.9a14.336,14.336,0,0,0,5.4-11,8.373,8.373,0,0,0-1.1-3.8,2.4,2.4,0,0,0-3.3-1.1,2.943,2.943,0,0,0-1.9,3.4,3,3,0,0,0,1.2,1.5c.3.2.9-.4,1.4-.6.3-.1.7-.5,1-.4a1.149,1.149,0,0,1,.6.9,4.97,4.97,0,0,1-1.4,4,2.231,2.231,0,0,1-3.6-.9,9.772,9.772,0,0,1-.8-6.3A42.94,42.94,0,0,0,50,8.7a2.544,2.544,0,0,0-.2-.7A21.334,21.334,0,0,0,41,11.6c-1.5,1-2.6,1.2-4.2.3a13.363,13.363,0,0,0-7.6-1.5,14.241,14.241,0,0,0-7.6,1.5,3.188,3.188,0,0,1-4.2-.3A22.773,22.773,0,0,0,8.6,8c-.4.3-.5.5-.5.7A36.9,36.9,0,0,0,8,21.1a9.772,9.772,0,0,1-.8,6.3,2.231,2.231,0,0,1-3.6.9,5.271,5.271,0,0,1-1.5-4,1.149,1.149,0,0,1,.6-.9c.3-.1.7.2,1,.4.5.2,1.1.7,1.4.6a2.555,2.555,0,0,0,1.2-1.5,3,3,0,0,0-1.9-3.4,2.346,2.346,0,0,0-3.3,1.1A9.165,9.165,0,0,0,0,24.5a14.336,14.336,0,0,0,5.4,11c.3.3,2.4,1.6,2.7,1.9,0,.1,0,.6-.1.7a33.57,33.57,0,0,1-6.6-3.5,18.507,18.507,0,0,0,4.5,6.6,30.217,30.217,0,0,0,14.5,7.5,35.94,35.94,0,0,0,8.5,1.4h0a35.94,35.94,0,0,0,8.5-1.4c5.4-1.3,10.4-3.4,14.5-7.5a18.924,18.924,0,0,0,4.5-6.6,33.57,33.57,0,0,1-6.6,3.5A2.2,2.2,0,0,0,49.9,37.3Zm-26.3-.6a4.125,4.125,0,0,1-6.6.1c-2.6-2.9-2.6-8.6,0-11.5a4.018,4.018,0,0,1,6.2-.1c1.4,1.4,2.1,3.5,2.1,6.9A6.152,6.152,0,0,1,23.6,36.7ZM29,42.4c-.4.7-1.9.9-3.8,1,1.2-1,2.9-2.6,3.8-3.5,1,.8,2.4,2.5,3.6,3.5C30.8,43.3,29.4,43.2,29,42.4Zm13.1-7.5c-.1.2-.2.5-.3.7s-.3.4-.4.6a2.651,2.651,0,0,1-.5.6,4.025,4.025,0,0,1-6.5-.1,7.607,7.607,0,0,1-1.2-1.9l-.3-.6c0-.1-.1-.2-.1-.3a6.723,6.723,0,0,1-.3-1.8c0-3.4.8-5.5,2.1-6.9a4.789,4.789,0,0,1,1.5-1.1,2.663,2.663,0,0,1,1.2-.3h.8a5.228,5.228,0,0,1,1.6.6,4.36,4.36,0,0,1,1.1.9A5.675,5.675,0,0,1,42,27.1c0,.1.1.1.1.2a3.81,3.81,0,0,1,.3,1c0,.2.1.3.1.5s.1.5.1.7c0,.3.1.5.1.8v.8A7.11,7.11,0,0,1,42.1,34.9Z" fill="#fff"/>
    </g>
  </g>
</svg>
