<svg xmlns="http://www.w3.org/2000/svg" width="57.009" height="57.991" viewBox="0 0 57.009 57.991">
  <g id="Enchanter_white" transform="translate(-0.5 0.008)">
    <path id="패스_5" data-name="패스 5" d="M43.16,10.09a27.2,27.2,0,0,0-.96,3.7c-.43,3.68-2.5,5.54-5.75,5.01-2.07-.34-3.32-1.63-3.85-3.99-1.32-5.84,1.34-11.07,7-13.8C44.25-1.23,50.3.33,53.92,4.69c6.48,7.81,3.9,19.32-5.44,24.23a20.507,20.507,0,0,1-11.17,2.39c-3.26-.22-5.92,2.02-6.96,6.1a21.9,21.9,0,0,1-8.36,12.5c-3.04,2.27-6.27,4.3-9.44,6.4a16.869,16.869,0,0,1-2.62,1.4,2.676,2.676,0,0,1-3.48-1.05c-.88-1.18-.13-2.06.59-2.92,2.53-2.98,5.04-5.98,7.63-8.9a33.94,33.94,0,0,0,6.72-11.06,23.259,23.259,0,0,1,2.27-4.37c3.45-5.55,8.53-8.02,15.05-7.87a12.645,12.645,0,0,0,4.53-.71,6.367,6.367,0,0,0,3.49-8.85c-.51-.95-1.89-1.45-2.87-2.16C43.63,9.92,43.39,10.01,43.16,10.09ZM.55,16.36a15.085,15.085,0,0,0,2.97.71c4.38.2,7.23,2.48,8.23,6.72.26,1.12.48,2.26.82,3.35a1.486,1.486,0,0,0,.88.78c.15.05.61-.39.72-.69a15.663,15.663,0,0,0,.79-2.83c.72-5,2.6-7,7.56-7.99a7.492,7.492,0,0,0,2.15-.78c.41-.23.65-.75.96-1.15a5.286,5.286,0,0,0-1.24-.61c-.97-.2-1.97-.27-2.95-.42-4.01-.59-6.09-2.46-7.06-6.36A14.351,14.351,0,0,0,13.94,5a19.514,19.514,0,0,0-1.31-2.24c-.22.02-.44.05-.66.07a10.16,10.16,0,0,0-.84,2.47c-.37,5.63-2.49,8-8.11,9.08A11.408,11.408,0,0,0,.5,15.54C.52,15.82.53,16.09.55,16.36Zm46.81,33.7a13.886,13.886,0,0,0,1.38-2.99c.55-2.58,1.76-4.32,4.6-4.6.41-.04.78-.6,1.16-.92-.39-.37-.74-.99-1.18-1.06-2.43-.36-4.3-1.37-5.11-3.81-.21-.62-.26-1.3-.5-1.9a4.894,4.894,0,0,0-.82-1.08c-.22.37-.59.73-.63,1.12a7.513,7.513,0,0,1-4.19,6.11c-.69.37-1.38.75-2.46,1.34,4.7.8,6.79,3.58,7.32,7.74A2.024,2.024,0,0,1,47.36,50.06Z" fill="#fff"/>
  </g>
</svg>
