<svg xmlns="http://www.w3.org/2000/svg" width="38.052" height="58.031" viewBox="0 0 38.052 58.031">
  <g id="Innovator_white" transform="translate(-9.956 0.048)">
    <path id="패스_6" data-name="패스 6" d="M27.6,13.9c-.9-1.1-1.6-2-2.4-2.8a6.463,6.463,0,0,1-1.5-8A5.568,5.568,0,0,1,29.6,0a6.071,6.071,0,0,1,5.1,4,5.508,5.508,0,0,1-1.1,6.3c-1,1.2-2,2.3-3.1,3.5a70.161,70.161,0,0,1,7.1,2.8c6.7,3.6,10.6,9,10.4,17-.2,5.8,0,11.6,0,17.4,0,3.1-.3,3.5-3.2,4.5C33.9,59.4,23,58.3,12.2,55c-1.7-.5-2.2-1.3-2.2-3.1,0-6.6-.1-13.2,0-19.7.1-7.2,5.8-14.3,13.4-16.8C24.7,14.9,25.9,14.5,27.6,13.9ZM21.5,28.6A4.313,4.313,0,0,0,17.1,33a4.549,4.549,0,0,0,4.4,4.6,4.439,4.439,0,0,0,4.4-4.4A4.616,4.616,0,0,0,21.5,28.6Zm15.5,0A4.291,4.291,0,0,0,32.7,33,4.51,4.51,0,0,0,37,37.5a4.777,4.777,0,0,0,4.5-4.6A4.582,4.582,0,0,0,37,28.6Zm-.7,15H21.9v2.6H36.3Z" fill="#fff"/>
  </g>
</svg>
