<svg xmlns="http://www.w3.org/2000/svg" width="56.98" height="58.145" viewBox="0 0 56.98 58.145">
  <g id="Scholar_white" transform="translate(-0.519 0.111)">
    <path id="패스_7" data-name="패스 7" d="M52.4,15a9.718,9.718,0,0,0-3.2-8.8,8.736,8.736,0,0,0-7-2.5A4.674,4.674,0,0,0,38,9c.8,5.5,3.7,9.5,8.8,11.6,2.5,1,5,1.8,7.4,2.8,1,.4,2,1.1,3,1.6a4.331,4.331,0,0,0,.1.5,16.892,16.892,0,0,1-3.2,1.9c-2.3.7-4.7,1.1-7,1.7-2.8.7-5.1-.1-7.5-1.5A28.486,28.486,0,0,1,29.5,17.3a4.276,4.276,0,0,1,.1-3.5c2.1-4.1,4.4-8,6.7-12A3.2,3.2,0,0,1,40.1,0,99.254,99.254,0,0,1,50.2,3c6,2.6,8.9,10.4,6.4,16.4A2.251,2.251,0,0,1,53.9,21c-5.5-1.1-10-3.6-12.8-8.8a4.835,4.835,0,0,1,0-4.8,2.585,2.585,0,0,1,2.3-.9A8.312,8.312,0,0,1,50,10.7C50.8,12,51.5,13.4,52.4,15ZM16.2,58a3.431,3.431,0,0,0,3.5-1.8c2.3-3.7,4.6-7.4,6.9-11,1-1.6.8-2.5-.8-3.5a23.256,23.256,0,0,1-8.9-10c-1-2.1-1.8-2.3-3.8-1a107.137,107.137,0,0,1-9,5.9C1.2,38-.1,43,.8,45.9A3.2,3.2,0,0,0,3,48.2a2.043,2.043,0,0,1,1.6,2v1.3c.2,2.2,1.3,2.8,3.1,1.6a41.9,41.9,0,0,0,3.4-2.8,8.342,8.342,0,0,1,1.2-.8,1.38,1.38,0,0,0,.4.3C11.8,52,11,54.2,10,56.7,12.1,57.1,14.1,57.6,16.2,58Zm1.7-33c-.1.9-.5,2-.1,2.7,2.3,5.2,5.4,9.7,10.4,12.7,1.9,1.2,3.2,1,4.9-.7,1.8-1.7,3.5-3.4,5.4-5,2.7-2.4,2.7-3-.3-5A46.669,46.669,0,0,1,27.6,19.5c-1.4-1.8-3.1-1.9-4.6-.1a4.5,4.5,0,0,0-.3,5.5c1.2,2,2.6,3.8,3.9,5.8a22.033,22.033,0,0,1,1.2,1.9,14.235,14.235,0,0,1-7.3-5.8,9.516,9.516,0,0,0-2.1-1.9A.44.44,0,0,0,17.9,25Z" fill="#fff"/>
  </g>
</svg>
