<svg xmlns="http://www.w3.org/2000/svg" width="40" height="57.914" viewBox="0 0 40 57.914">
  <g id="Socialite_white" transform="translate(-9 -0.086)">
    <path id="패스_9" data-name="패스 9" d="M32.7,24.6c-.9-4.4-3.1-8.2-5.2-12.1C34.2,9.1,42.2,7,49,7.6a19.745,19.745,0,0,1-3.1,3.3c-2.7,1.9-3.7,4.6-4.2,7.7A49.125,49.125,0,0,1,40,26.2,11.591,11.591,0,0,1,33.1,33a2.017,2.017,0,0,0-1.4,2.2c.1,3.3,0,6.6.1,9.9,3.5-5.4,8.4-7.2,14.5-6.5.3,4.7-3.6,9.3-8.4,10-1.2.2-2.4.1-3.6.2-2.1.1-2.9.7-3.5,2.7a18.915,18.915,0,0,0-.5,2.3A4.693,4.693,0,0,1,27.6,58a4.646,4.646,0,0,1-.8-4.4,22.387,22.387,0,0,0,.7-4.4,3.928,3.928,0,0,0-2.9-4.3c-.9-.3-1.8-.5-2.6-.8-4.6-1.5-7.4-4.9-7.6-9.1-.1-.9.2-1.3,1.1-1.5a7.548,7.548,0,0,1,7.9,2.9c1.6,2,3,4.3,4.7,6.6,0-2.8,0-5.5-.1-8.2,0-.4-.7-1-1.2-1.1-6.6-1.4-9.6-5.8-10.4-12.3C16,16.5,14.1,12.1,10,9.1A6.472,6.472,0,0,1,9,7.6C21.1,7.7,27.9,14.8,32.7,24.6ZM23,1.2a15.718,15.718,0,0,0-5.3,0c-1.1.1-2.3.9-2.1,2.2.2,1.2.8,2.7,1.7,3.2a90.134,90.134,0,0,0,8.4,3.8c2-.9,4-1.8,6.2-2.7C29.7,4.3,26.9,2,23,1.2ZM33.8,5.7a1.941,1.941,0,0,0,1.6.5c2.1-.4,4.3-.9,6.5-1.5-.7-1.3-1.2-2.5-1.8-3.5a2.809,2.809,0,0,0-1.2-1c-3-.3-5.9-.1-8.6,1.7C31.5,3.2,32.6,4.5,33.8,5.7Z" fill="#fff"/>
  </g>
</svg>
