<svg xmlns="http://www.w3.org/2000/svg" width="57.952" height="46.875" viewBox="0 0 57.952 46.875">
  <g id="Syndicate_white" transform="translate(-0.021 -5.625)">
    <path id="패스_10" data-name="패스 10" d="M31.8,52.5a45.082,45.082,0,0,1-18-3.4,40.245,40.245,0,0,1-5.4-2.9c-1.4-.9-1.5-1.6-1-3.2a41.676,41.676,0,0,1,6.3-13.9,1.708,1.708,0,0,0,0-1.4c-1.5-2-1.3-3.9.2-5.9C17,17.6,20,13.2,23.1,9c3.4-4.5,9-4.5,12.3,0,3.2,4.4,6.2,8.9,9.3,13.3a4.206,4.206,0,0,1,0,5.2c-.3.5-.6.9-1,1.5,3.6,2.7,4.9,6.7,6,10.8.4,1.3.8,2.7,1.2,4a1.714,1.714,0,0,1-.8,2.2,44.015,44.015,0,0,1-16.2,6.4c-.5-4.8-1.1-9.5-1.6-14.2h-.5ZM22.6,17.4c-1.4,5.6.5,9.8,5.1,12.9,1.4.9,2.1.9,3.3-.2l2.4-2.4c2.9-2.9,2.7-6.4,2.2-10.2C31.3,19.5,26.9,19.1,22.6,17.4ZM10.5,8a107.826,107.826,0,0,0-6.7,9.5A5.089,5.089,0,0,0,3.5,20a4.845,4.845,0,0,1,0,1.7c-1.1,3-2.3,6-3.4,9a2.116,2.116,0,0,0,.4,1.9A24.647,24.647,0,0,0,5,35.1a1.674,1.674,0,0,0,1.5-.4,50.413,50.413,0,0,0,3.1-4.9,5.457,5.457,0,0,0,.6-2.8,10.059,10.059,0,0,1,2-7.1q3-4.2,5.7-8.4c1-1.6,1-2.8-.1-3.6a30.915,30.915,0,0,0-3.7-2C12.7,6.6,11.2,7,10.5,8ZM57,32.8a1.764,1.764,0,0,0,.8-2.4c-.8-1.9-1.5-3.9-2.2-5.9-.8-2-2-4-1.5-6.3.1-.4-.2-.9-.4-1.3-2.1-3.1-4.1-6.1-6.3-9.1a4.757,4.757,0,0,0-7-.4,2.074,2.074,0,0,0-.4,2.9c2.1,3.2,4.1,6.6,6.3,9.8a8.821,8.821,0,0,1,1.5,6.5,4.093,4.093,0,0,0,.2,2.7c1.1,2.1,2.5,4.1,3.8,6.3C53.6,34.7,55.3,33.8,57,32.8Z" fill="#fff"/>
  </g>
</svg>
