<svg xmlns="http://www.w3.org/2000/svg" width="58" height="57" viewBox="0 0 58 57">
  <g id="Transformer_white" transform="translate(0 -0.5)">
    <path id="패스_11" data-name="패스 11" d="M9.6,27,6.1,32.4,6,37.6H0V.5H4L7.8,2V9.3l1.7,2.1a2.112,2.112,0,0,1,.4,1V26.2A1.136,1.136,0,0,1,9.6,27ZM54,.5,50.2,2V9.3l-1.7,2.1a2.112,2.112,0,0,0-.4,1V26.2a1.613,1.613,0,0,0,.3.9l3.5,5.4.1,5.2h6V.5ZM50.9,33.2l.1,4.4-6.4-2.1L42.3,30l-7.6,3.5L37.8,36v5.6L35,44.4,33.5,57.5h-9L23,44.4l-2.8-2.8V36l3.1-2.5L15.7,30l-2.3,5.5L7,37.6l.1-4.4a2.353,2.353,0,0,1,.2-.8L11,27a1.613,1.613,0,0,0,.3-.9V12.4a1.284,1.284,0,0,0-.4-1L9.2,9.2V2.5H16V12.6l1.8,1.8.4-13.2h7.1l1.5,1.9a1.083,1.083,0,0,1,0,1.1,22.888,22.888,0,0,0-1.6,2.3A5.339,5.339,0,0,0,25,8.7a12.955,12.955,0,0,1,8.1-.1,4.878,4.878,0,0,0-.3-2.1c-.4-.7-1.3-1.7-1.6-2.3a1.083,1.083,0,0,1,0-1.1l1.6-1.9H40l.4,13.2,1.8-1.8V2.5H49V9.3l-1.7,2.1a2.112,2.112,0,0,0-.4,1V26.2a1.613,1.613,0,0,0,.3.9l3.7,5.4C50.8,32.7,50.9,32.9,50.9,33.2ZM37,23.2a6.478,6.478,0,0,0,.2-2,8.643,8.643,0,0,0-5.5-8.1v4.1h0A2.669,2.669,0,0,1,29,19.8a2.606,2.606,0,0,1-2.7-2.6h0V13.1a8.722,8.722,0,0,0-2.6,14.6l1.3.8,1-2.8s2.1-2.8,3-2.8,3,2.8,3,2.8l1,2.8,1.1-.6c.3-.2.5-.5.8-.7l.3-.3a5.547,5.547,0,0,0,.6-.8,2.186,2.186,0,0,0,.3-.5l.3-.6c.1-.3.2-.5.3-.8.1-.2.1-.4.2-.6,0-.1.1-.2.1-.4Z" fill="#fff"/>
  </g>
</svg>
